<?xml version="1.0" encoding="UTF-8"?>
<svg version="1.1" xmlns="http://www.w3.org/2000/svg" width="141" height="94">
<path d="M0 0 C46.53 0 93.06 0 141 0 C141 31.02 141 62.04 141 94 C94.47 94 47.94 94 0 94 C0 62.98 0 31.96 0 0 Z " fill="#014581" transform="translate(0,0)"/>
<path d="M0 0 C7.70075279 5.29008235 15.23562235 13.59484642 17 23 C17.92607592 33.75848692 17.64011382 43.79263711 10.94140625 52.75390625 C3.94106767 60.86391064 -3.30034702 66.1991589 -14.1171875 67.32421875 C-24.79426787 67.68849561 -32.71587459 64.83045874 -40.95703125 58.0625 C-44.45758381 54.52848136 -46.8205866 50.44457421 -49 46 C-49.37640625 45.25621094 -49.7528125 44.51242188 -50.140625 43.74609375 C-51.35325036 39.87120452 -51.32916726 36.22430999 -51.3125 32.1875 C-51.32861328 31.41857422 -51.34472656 30.64964844 -51.36132812 29.85742188 C-51.36912592 20.6170315 -47.84922207 13.08264499 -42 6 C-30.26005165 -5.23991351 -14.69382317 -7.89414589 0 0 Z " fill="#094A85" transform="translate(89,15)"/>
<path d="M0 0 C7.70075279 5.29008235 15.23562235 13.59484642 17 23 C17.92607592 33.75848692 17.64011382 43.79263711 10.94140625 52.75390625 C3.94106767 60.86391064 -3.30034702 66.1991589 -14.1171875 67.32421875 C-24.79426787 67.68849561 -32.71587459 64.83045874 -40.95703125 58.0625 C-44.45758381 54.52848136 -46.8205866 50.44457421 -49 46 C-49.37640625 45.25621094 -49.7528125 44.51242188 -50.140625 43.74609375 C-51.35325036 39.87120452 -51.32916726 36.22430999 -51.3125 32.1875 C-51.32861328 31.41857422 -51.34472656 30.64964844 -51.36132812 29.85742188 C-51.36912592 20.6170315 -47.84922207 13.08264499 -42 6 C-30.26005165 -5.23991351 -14.69382317 -7.89414589 0 0 Z M-38.5 15 C-43.55680456 22.05600636 -43.63694003 29.62732059 -43 38 C-41.65281336 45.3360436 -36.98106334 50.82229025 -31.2578125 55.390625 C-24.67082 59.40501528 -16.18308611 59.04220044 -8.82421875 57.5625 C-2.35154504 55.18174645 3.34728066 49.82967067 6.4375 43.75 C9.36523184 37.18557884 10.22240582 30.60243154 8.3515625 23.55859375 C5.45458204 16.43994518 0.81591591 10.14377051 -6.0625 6.5 C-18.4470691 1.80823492 -30.29239692 4.74049616 -38.5 15 Z " fill="#F7F9FB" transform="translate(89,15)"/>
<path d="M0 0 C0 13.2 0 26.4 0 40 C3.96 40 7.92 40 12 40 C12 34.06 12 28.12 12 22 C14.6906142 25.5874856 16.36237237 28.69416081 18.1875 32.75 C18.71730469 33.92046875 19.24710938 35.0909375 19.79296875 36.296875 C20.19128906 37.18890625 20.58960937 38.0809375 21 39 C24.63 39.33 28.26 39.66 32 40 C28.15618805 44.43516763 24.4527038 45.72683838 18.66796875 46.37109375 C9.69217897 46.542349 3.92974604 45.47369024 -2.7734375 39.390625 C-9.2831751 32.46807477 -10.54063242 25.46276716 -10.28125 16.125 C-9.75771153 10.30790584 -8.41683489 5.93043404 -3.875 2 C-1 0 -1 0 0 0 Z " fill="#044683" transform="translate(56,27)"/>
<path d="M0 0 C3.63 0 7.26 0 11 0 C11 13.53 11 27.06 11 41 C7.37 41 3.74 41 0 41 C0 27.47 0 13.94 0 0 Z " fill="#F3F6F9" transform="translate(56,26)"/>
<path d="M0 0 C3.63 0 7.26 0 11 0 C9.32694197 5.3537857 7.6080653 10.09554571 4.671875 14.8828125 C2.88968372 20.49878734 5.60552222 25.82303449 8.0625 30.8125 C11 36.81882353 11 36.81882353 11 39 C7.37 39 3.74 39 0 39 C-1.37345766 36.13286957 -2.72368485 33.25825801 -4.0625 30.375 C-4.45244141 29.56675781 -4.84238281 28.75851563 -5.24414062 27.92578125 C-7.40956487 23.21167183 -8.71130002 20.13390007 -7 15 C-5.91601056 12.31967908 -4.70805528 9.72146148 -3.4375 7.125 C-3.10814453 6.43664063 -2.77878906 5.74828125 -2.43945312 5.0390625 C-1.63304639 3.3561267 -0.81745506 1.67759707 0 0 Z " fill="#F9FBFC" transform="translate(76,27)"/>
<path d="M0 0 C2.97 0 5.94 0 9 0 C8.7834375 0.57363281 8.566875 1.14726562 8.34375 1.73828125 C4.26526372 14.18144077 4.36582746 28.72495964 9 41 C6.03 41 3.06 41 0 41 C-1.53795763 37.94507052 -3.05543102 34.8826212 -4.5625 31.8125 C-5.00013672 30.94818359 -5.43777344 30.08386719 -5.88867188 29.19335938 C-6.29794922 28.35224609 -6.70722656 27.51113281 -7.12890625 26.64453125 C-7.51119385 25.87471924 -7.89348145 25.10490723 -8.28735352 24.31176758 C-9.59095842 20.08297866 -7.99844219 16.63168139 -6.15234375 12.79296875 C-5.79462891 12.04208984 -5.43691406 11.29121094 -5.06835938 10.51757812 C-4.50858398 9.36418945 -4.50858398 9.36418945 -3.9375 8.1875 C-3.37192383 7.00510742 -3.37192383 7.00510742 -2.79492188 5.79882812 C-1.86829839 3.86347527 -0.93482533 1.93140451 0 0 Z " fill="#F2F5F8" transform="translate(19,26)"/>
<path d="M0 0 C2.64 0 5.28 0 8 0 C17.56730747 14.640137 17.56730747 14.640137 16.65722656 21.63427734 C14.91483789 27.18140927 12.07797171 32.09784841 9 37 C8.67 37.66 8.34 38.32 8 39 C5.36 39 2.72 39 0 39 C0.33 37.741875 0.66 36.48375 1 35.1875 C2.06950481 29.86289392 2.22507844 24.66057414 2.25 19.25 C2.25902344 18.43426514 2.26804687 17.61853027 2.27734375 16.77807617 C2.2542943 12.08223014 1.63922015 8.44931182 0 4 C0 2.68 0 1.36 0 0 Z " fill="#FAFBFC" transform="translate(117,27)"/>
<path d="M0 0 C3.3 0 6.6 0 10 0 C15.22708465 9.77237565 15.87541297 22.72765627 13.10546875 33.46875 C12 36.1875 12 36.1875 10 40 C7.03 40 4.06 40 1 40 C1.433125 38.83597656 1.433125 38.83597656 1.875 37.6484375 C5.76153918 26.33968807 7.08190123 15.14288435 2 4 C1.34 2.68 0.68 1.36 0 0 Z " fill="#F3F6F9" transform="translate(103,26)"/>
<path d="M0 0 C3.3 0 6.6 0 10 0 C8 5 8 5 6.953125 7.06640625 C5.57796819 11.29895855 5.63154375 15.32642358 5.625 19.75 C5.60050781 20.6059375 5.57601562 21.461875 5.55078125 22.34375 C5.52493551 28.02981271 6.54729752 32.12800295 9.13818359 37.19628906 C10 39 10 39 10 41 C6.7 41 3.4 41 0 41 C-5.12993156 28.1751711 -4.55621928 12.90928797 0 0 Z " fill="#EFF3F7" transform="translate(30,26)"/>
<path d="M0 0 C4.24178021 1.74460315 4.24178021 1.74460315 6.109375 3.24609375 C6.604375 5.22609375 6.604375 5.22609375 7.109375 7.24609375 C3.149375 6.91609375 -0.810625 6.58609375 -4.890625 6.24609375 C-5.303125 7.54546875 -5.715625 8.84484375 -6.140625 10.18359375 C-6.90781365 12.60023801 -7.71556271 14.90188344 -8.86621094 17.16430664 C-11.98999577 23.41678792 -12.53967966 28.87548447 -12.640625 35.80859375 C-12.68509766 37.32163086 -12.68509766 37.32163086 -12.73046875 38.86523438 C-12.80043168 41.32559745 -12.85348689 43.78505386 -12.890625 46.24609375 C-13.220625 46.24609375 -13.550625 46.24609375 -13.890625 46.24609375 C-13.890625 32.71609375 -13.890625 19.18609375 -13.890625 5.24609375 C-23.65758641 5.41755224 -23.65758641 5.41755224 -29.890625 10.24609375 C-28.44046306 6.61280758 -26.66870183 5.12867798 -23.390625 3.05859375 C-22.5965625 2.54941406 -21.8025 2.04023438 -20.984375 1.515625 C-14.85514401 -2.20079305 -6.82848759 -1.78094339 0 0 Z " fill="#14538B" transform="translate(80.890625,20.75390625)"/>
<path d="M0 0 C0.99 0.33 1.98 0.66 3 1 C3.3608554 10.27532021 3.21659252 18.56681496 -1 27 C1.64 27.33 4.28 27.66 7 28 C7 28.33 7 28.66 7 29 C6.22914062 28.98839844 5.45828125 28.97679688 4.6640625 28.96484375 C3.66117188 28.95582031 2.65828125 28.94679688 1.625 28.9375 C0.12839844 28.92009766 0.12839844 28.92009766 -1.3984375 28.90234375 C-3.98432453 28.81993398 -3.98432453 28.81993398 -6 30 C-5.731875 29.360625 -5.46375 28.72125 -5.1875 28.0625 C-4.795625 27.051875 -4.40375 26.04125 -4 25 C-3.74734375 24.41476563 -3.4946875 23.82953125 -3.234375 23.2265625 C-0.30158477 15.72206986 -0.28314182 7.95726158 0 0 Z " fill="#19568D" transform="translate(106,38)"/>
<path d="M0 0 C0.75670403 2.27011209 1.056637 3.7289515 0.5625 6.09375 C-0.19139434 9.98887077 -0.36017729 13.85559855 -0.5625 17.8125 C-0.60568359 18.60076172 -0.64886719 19.38902344 -0.69335938 20.20117188 C-0.79878321 22.13394215 -0.89983094 24.06695026 -1 26 C-1.33 26 -1.66 26 -2 26 C-2.06058594 25.10796875 -2.12117188 24.2159375 -2.18359375 23.296875 C-2.26738281 22.12640625 -2.35117187 20.9559375 -2.4375 19.75 C-2.51871094 18.58984375 -2.59992187 17.4296875 -2.68359375 16.234375 C-2.89452545 13.15148316 -2.89452545 13.15148316 -3.5859375 10.83984375 C-4.3722701 7.34585645 -3.04566923 4.35714857 -2 1 C-1.34 0.67 -0.68 0.34 0 0 Z " fill="#366B9B" transform="translate(28,28)"/>
<path d="M0 0 C0.66 0.66 1.32 1.32 2 2 C1.40975852 3.65087847 0.80233994 5.29562407 0.1875 6.9375 C-0.31716797 8.31228516 -0.31716797 8.31228516 -0.83203125 9.71484375 C-2 12 -2 12 -5 13 C-4.11034483 4.10344828 -4.11034483 4.10344828 -2 1 C-1.34 0.67 -0.68 0.34 0 0 Z " fill="#1C598F" transform="translate(40,28)"/>
<path d="M0 0 C0.33 0 0.66 0 1 0 C0.67 2.31 0.34 4.62 0 7 C2.64 7.33 5.28 7.66 8 8 C8 8.33 8 8.66 8 9 C7.22914062 8.98839844 6.45828125 8.97679688 5.6640625 8.96484375 C4.66117188 8.95582031 3.65828125 8.94679688 2.625 8.9375 C1.12839844 8.92009766 1.12839844 8.92009766 -0.3984375 8.90234375 C-2.98432453 8.81993398 -2.98432453 8.81993398 -5 10 C-3.66654496 6.40992874 -2.1056769 3.20429093 0 0 Z " fill="#356A9B" transform="translate(105,58)"/>
<path d="M0 0 C1.41687119 4.25061356 0.19320039 6.71851625 -1 11 C-1.99 10.34 -2.98 9.68 -4 9 C-2.25 2.25 -2.25 2.25 0 0 Z " fill="#276094" transform="translate(108,50)"/>
<path d="M0 0 C0.66 0.66 1.32 1.32 2 2 C-0.625 5.875 -0.625 5.875 -4 7 C-3.39816251 4.97954558 -2.72693904 2.97888961 -2 1 C-1.34 0.67 -0.68 0.34 0 0 Z " fill="#286195" transform="translate(40,28)"/>
</svg>
